
        <svg xmlns="http://www.w3.org/2000/svg" xmlns:xlink="http://www.w3.org/1999/xlink" version="1.1" width="3162.1621621621625" 
        height="625.5008757463618" viewBox="0 0 3162.1621621621625 625.5008757463618">
			
			<g transform="scale(8.108108108108109) translate(10, 10)">
				<defs id="SvgjsDefs1152"></defs><g id="SvgjsG1153" featureKey="symbolFeature-0" transform="matrix(0.44642854101804047,0,0,0.44642854101804047,-3.5714261994071554,0.0011212168844731997)" fill="#dc7736"><title xmlns="http://www.w3.org/2000/svg">Artboard 8</title><path xmlns="http://www.w3.org/2000/svg" d="M9.9,95.41l52,32a4,4,0,0,0,4.19,0l52-32A4,4,0,0,0,120,92V36a4,4,0,0,0-1.9-3.41l-52-32a4,4,0,0,0-4.19,0l-52,32A4,4,0,0,0,8,36V92A4,4,0,0,0,9.9,95.41ZM16,38.24,64,8.7l48,29.54V89.76L64,119.3,16,89.76Z"></path></g><g id="SvgjsG1154" featureKey="nameFeature-0" transform="matrix(0.6740153057642351,0,0,0.6740153057642351,67.31447058749117,11.075054412693955)" fill="#dc7736"><path d="M15.058594 12.148438 c5.234375 0 8.574219 3.925781 8.574219 8.769531 c0 4.921875 -3.339844 8.691406 -8.574219 8.691406 l-6.40625 0 l0 10.390625 l-4.667969 0 l0 -27.851562 l11.074219 0 z M14.316406 25.625 c3.125 0 4.765625 -1.914062 4.765625 -4.765625 c0 -2.753906 -1.640625 -4.765625 -4.765625 -4.765625 l-5.664062 0 l0 9.53125 l5.664063 0 z M51.283203 16.308594 l-10.820312 0 l0 7.714844 l9.570313 0 l0 4.121094 l-9.570312 0 l0 7.675781 l10.820313 0 l0 4.179688 l-15.546875 0 l0 -27.851562 l15.546875 0 l0 4.160156 z M75.300782 12.148438 c5.234375 0 8.574219 3.925781 8.574219 8.769531 c0 4.921875 -3.339844 8.691406 -8.574219 8.691406 l-6.40625 0 l0 10.390625 l-4.667969 0 l0 -27.851562 l11.074219 0 z M74.558594 25.625 c3.125 0 4.765625 -1.914062 4.765625 -4.765625 c0 -2.753906 -1.640625 -4.765625 -4.765625 -4.765625 l-5.664062 0 l0 9.53125 l5.664063 0 z M111.34961 12.148438 l0 4.160156 l-6.875 0 l0 23.691406 l-4.648437 0 l0 -23.691406 l-6.894531 0 l0 -4.160156 l18.417969 0 z M122.847656 40 l0 -27.851562 l4.667969 0 l0 27.851563 l-4.667969 0 z M142.060547 40 l0 -27.851562 l9.53125 0 c8.710938 0 13.085938 5.664063 13.085938 13.90625 c0 8.261719 -4.375 13.945313 -13.085937 13.945313 l-9.53125 0 z M146.728516 35.820313 l4.667969 0 c5.703125 0 8.378906 -3.691406 8.378906 -9.765625 c0 -6.035156 -2.675781 -9.746094 -8.378906 -9.746094 l-4.667969 0 l0 19.511719 z M192.953125 16.308594 l-10.820312 0 l0 7.714844 l9.570313 0 l0 4.121094 l-9.570312 0 l0 7.675781 l10.820313 0 l0 4.179688 l-15.546875 0 l0 -27.851562 l15.546875 0 l0 4.160156 z M238.625 16.308594 l-11.035156 0 l0 7.695313 l9.570313 0 l0 4.140625 l-9.570312 0 l0 11.855469 l-4.726562 0 l0 -27.851562 l15.761719 0 l0 4.160156 z M262.759765 40.371094 c-8.007812 0 -14.0625 -5.488281 -14.0625 -14.316406 c0 -8.808594 6.054688 -14.296875 14.0625 -14.296875 c7.988281 0 14.042969 5.488281 14.042969 14.296875 c0 8.828125 -6.054687 14.316406 -14.042969 14.316406 z M262.759765 36.035156 c5.273438 0 9.394531 -3.652344 9.394531 -9.980469 c0 -6.269531 -4.121094 -9.941406 -9.394531 -9.941406 s-9.394531 3.671875 -9.394531 9.941406 c0 6.328125 4.121094 9.980469 9.394531 9.980469 z M299.375 40.371094 c-5.917969 0 -10.527344 -3.300781 -10.527344 -9.863281 l0 -18.359375 l4.6875 0 l0 17.714844 c0 4.433594 2.558594 6.328125 5.839844 6.328125 s5.878906 -1.914062 5.878906 -6.328125 l0 -17.714844 l4.667969 0 l0 18.359375 c0 6.5625 -4.609375 9.863281 -10.546875 9.863281 z M342.748047 12.148438 l4.667969 0 l0 27.851563 l-5.234375 0 l-13.671875 -21.25 l0 21.25 l-4.628906 0 l0 -27.851562 l5.175781 0 l13.691406 21.113281 l0 -21.113281 z M361.960938 40 l0 -27.851562 l9.53125 0 c8.710938 0 13.085938 5.664063 13.085938 13.90625 c0 8.261719 -4.375 13.945313 -13.085937 13.945313 l-9.53125 0 z M366.628907 35.820313 l4.667969 0 c5.703125 0 8.378906 -3.691406 8.378906 -9.765625 c0 -6.035156 -2.675781 -9.746094 -8.378906 -9.746094 l-4.667969 0 l0 19.511719 z M412.208985 40 l-7.226562 -12.421875 l-3.007812 0 l0 12.421875 l-4.667969 0 l0 -27.851562 l9.667969 0 c6.035156 0 8.691406 3.613281 8.691406 8.085938 c0 3.886719 -2.304687 6.503906 -5.996094 7.167969 l8.027344 12.597656 l-5.488281 0 z M401.97461 16.09375 l0 8.027344 l4.316406 0 c3.417969 0 4.882813 -1.601562 4.882813 -3.984375 c0 -2.363281 -1.464844 -4.042969 -4.882812 -4.042969 l-4.316406 0 z M449.078125 12.148438 l-9.160156 14.550781 l0 13.300781 l-4.6875 0 l0 -13.242187 l-9.199219 -14.609375 l5.234375 0 l6.289063 10.410156 l6.308594 -10.410156 l5.214844 0 z"></path></g>
			</g>
		</svg>
	